<svg xmlns="http://www.w3.org/2000/svg" xmlns:xlink="http://www.w3.org/1999/xlink" aria-hidden="true" role="img" class="iconify iconify--logos" width="31.88" height="32" preserveAspectRatio="xMidYMid meet" viewBox="0 0 256 257"><defs><linearGradient id="IconifyId181E24A576D12C45A1" x1="20.825%" x2="87.692%" y1="1.421%" y2="83.73%"><stop offset="0%" stop-color="#41D1FF"></stop><stop offset="100%" stop-color="#BD34FE"></stop></linearGradient><linearGradient id="IconifyId181E24A576D12C45A2" x1="88.392%" x2="16.441%" y1="7.605%" y2="76.594%"><stop offset="0%" stop-color="#FFEA83"></stop><stop offset="8.333%" stop-color="#FFDD35"></stop><stop offset="100%" stop-color="#FFA800"></stop></linearGradient></defs><path fill="url(#IconifyId181E24A576D12C45A1)" d="M255.153 37.938L134.897 252.976c-2.483 4.44-8.862 4.466-11.382.048L1.587 37.988c-2.285-4.008.421-8.903 4.932-8.97l243.32-.3.313.001c4.54 0 7.315 4.942 5.001 9.219z"></path><path fill="url(#IconifyId181E24A576D12C45A2)" d="M185.432 27.242L142.84 47.907c-4.423 2.156-5.676 7.84-2.359 11.373l105.077 111.622c5.912 6.286 16.56 2.733 17.39-5.91L254.15 37.948c.117-1.108-.035-2.23-.432-3.267l-8.838-23.483a5.041 5.041 0 0 0-9.303-.271l-50.145 16.315z"></path></svg>